<svg xmlns="http://www.w3.org/2000/svg" width="517.469" height="577.179" viewBox="0 0 517.469 577.179">
  <g id="Group_248" data-name="Group 248" transform="translate(-197.212 -308.838)">
    <g id="Group_204" data-name="Group 204" transform="translate(282 245)">
      <text id="_-_Mumbai_-_New_delhi_-_pune" data-name="- Mumbai
- New delhi
- pune" transform="translate(312 535)" fill="#101920" font-size="20" font-family="Bahnschrift" font-weight="700"><tspan x="0" y="0">- MUMBAI</tspan><tspan x="0" y="42">- NEW DELHI</tspan><tspan x="0" y="84">- PUNE</tspan></text>
      <g id="Group_201" data-name="Group 201" transform="translate(-203 -327)">
        <g id="Group_198" data-name="Group 198" transform="translate(471.998 841)">
          <circle id="Ellipse_151" data-name="Ellipse 151" cx="13.347" cy="13.347" r="13.347" transform="translate(0 25.975) rotate(-76.673)" fill="#ff6d00"/>
          <path id="Path_137" data-name="Path 137" d="M269.791,318.179a7.676,7.676,0,1,1-7.676-7.676A7.677,7.677,0,0,1,269.791,318.179Z" transform="translate(-246.051 -302.115)" fill="none" stroke="#fff" stroke-miterlimit="10" stroke-width="0.713"/>
        </g>
        <g id="Group_199" data-name="Group 199" transform="translate(474.468 924)">
          <circle id="Ellipse_152" data-name="Ellipse 152" cx="13.347" cy="13.347" r="13.347" fill="#c6f"/>
          <path id="Path_139" data-name="Path 139" d="M295.256,320.186a7.676,7.676,0,1,1-7.676-7.676A7.676,7.676,0,0,1,295.256,320.186Z" transform="translate(-274.232 -306.84)" fill="none" stroke="#fff" stroke-miterlimit="10" stroke-width="0.713"/>
        </g>
        <g id="Group_200" data-name="Group 200" transform="translate(474.951 885)">
          <circle id="Ellipse_150" data-name="Ellipse 150" cx="13.347" cy="13.347" r="13.347" fill="#fe186e"/>
          <path id="Path_135" data-name="Path 135" d="M318.86,184.521a7.676,7.676,0,1,1-7.676-7.676A7.678,7.678,0,0,1,318.86,184.521Z" transform="translate(-297.836 -171.176)" fill="none" stroke="#fff" stroke-miterlimit="10" stroke-width="0.713"/>
        </g>
      </g>
    </g>
    <g id="Group_205" data-name="Group 205" transform="translate(-466.71 -41.165)">
      <g id="Group_190" data-name="Group 190" transform="translate(666 352)">
        <path id="Path_109" data-name="Path 109" d="M339.928,192.8s-6.647-1.294-7.755-3.694,1.662-6.277-4.8-7.2-7.016,1.661-9.416-4.8-6.833-4.8-6.279-10.894,2.4-6.831.924-14.957,0-4.985,4.247-8.124,5.539-4.617,3.693-6.831-4.8-.184-4.431-5.909-5.909-.922-7.386-4.8-.924-2.769-5.171-4.615-4.8,0-4.617-4.987-2.769-3.877,2.216-5.169c0,0,1.062.646,2.724-1.292s4.015-5.4,5.953-5.4,2.77-1.108,4.433,0,1.523,1.384,3.877,1.384,1.467-1.384.941-3.739,3.768-1.523,7.229-1.523,4.155-1.94,6.233-1.8S341.4,99.7,343.9,99.975s4.432,7.617,5.539,8.171,7.617,1.107,10.664,4.015,3.047,4.985,6.924,7.063,1.662,5.539,3.6,6.093,7.755,2.215,8.309,3.323-.138,3.6,2.077,4.017,8.864-2.908,10.664-3.324,2.077-3.739,4.985-4.015,10.248.276,12.186-.692,1.108-2.078,3.185-.97.692,2.216,4.155,2.354,5.815-.83,7.616,3.323,2.632,3.047,1.386,7.479-.278,6.369-2.908,7.754-.692,3.463-4.847,6.509-5.263,3.047-5.955,4.985.138,1.938-4.569,3.739-5.263,3.6-4.432,5.679,2.078,3.185.14,4.847-.832,3.6,1.523,4.153,5.677-1.384,5.539,1.94.97,5.4,2.216,7.616.276,5.677-1.384,6.093-4.709.83-6.093,1.938-1.8,2.17-3.74.74,0-4.2-2.077-4.617-4.293-.138-4.847,1.938-.138,3.047,1.662,5.539,2.908.554,2.631,4.431-2.216,3.186,4.017,5.679,4.015,7.893,6.508,8.448.416-.14,3.739,2.907,4.709.832,8.309,3.6,3.96,1.938,5.165,4.433.929,2.631,5.637,4.015,6.785,3.877,5.955,5.4-2.354-.416-3.74,1.938-.83,4.847-3.739,5.4-3.047,3.739-3.6,5.4,1.386,2.492-1.8,3.877,0,5.817-1.246,7.617-1.938,3.877.416,5.539,5.677.83,7.2,1.662.138,1.246,3.462,1.8,1.8.138,4.153,2.493,4.987,6.231,9.833,7.2,3.047,3.185,6.923,3.877,5.539.692,8.586,2.908,5.539.276,6.369,2.631,1.662,2.909,4.433,2.909,3.6-1.939,8.032-1.386,2.769,3.324,5.123,1.386,7.479-2.354,10.526,3.185,5.816,5.4,8.586,6.093,2.631,1.246,6.231,1.108,4.015-1.481,5.539.022a6.209,6.209,0,0,0,4.847,2.193c2.077,0,3.6-1.107,7.063,0s7.061,2.494,11.908,2.632,1.8.138,5.955,1.384,11.216-1.384,12.186-2.77,1.522-7.616,1.246-9.416-3.047-4.431-2.631-6.923,1.107-2.632,1.938-6.093,1.523-4.571,3.6-5.955,3.461-2.77,4.985-2.493,4.709,3.6,4.015,6.093a17.571,17.571,0,0,0,.1,9c.872,2.769-.1,6.508,4.472,8.032s10.108-.278,11.494,1.938,3.047-1.478,6.739-2.216,3.509-.368,11.262-.922,12,.368,16.619-.738,7.015-.74,7.385-2.4,1.477-10.526-3.324-10.526-7.2-.554-7.016-2.585.738-6.093,3.507-6.277,4.986.922,8.309-1.478-.554-3.693,5.355-4.985,5.539-1.108,7.385-5.539,2.031-7.94,9.416-8.494,6.833-4.8,12-8.124,7.017-5.355,10.71-4.063,4.8,2.216,8.862-.368,9.786-6.095,11.078-3.14.924,2.586,0,4.987-1.292,2.215,3.509,2.4,1.478,4.987.738,7.387-1.661,6.646.37,6.462,3.508-3.693,7.755-2.215,5.723.184,7.385,5.353,3.877,5.725,3.139,7.755-1.108-1.108-1.662,4.063-7.2,5.909-9.232,5.539-1.662-2.032-5.723-.37-7.385,4.247-11.264,4.985-1.661,8.309-4.615,13.48-6.093,14.771-7.017,16.617-4.985.554-4.063,3.139,4.433,4.985,4.247,9.6-.738,6.461.554,7.385.74,4.615-1.476,4.431-2.585-2.2-5.355.006-2.215,10.518-4.247,10.7-.738-.37-5.355,0-6.831-1.294-8.494-1.294,3.878,6.647,3.324,10.156-2.954,9.972-4.431,13.849-1.478,4.8-.186,7.016.186,6.463-1.846,6.833-4.431-1.108-6.462-2.586-3.693-2.769-3.508-7.385-.184-12.371-2.031-13.479-7.017,1.662-8.679,2.216a21.408,21.408,0,0,1-7.754,1.477c-2.954-.184-4.433-1.661-4.617-4.985s-.184-9.97,2.031-11.816,1.846-2.4,5.541-2.77,5.169-.184,7.57-1.292,1.476-5.723,1.662-8.124-1.108-3.324,2.955-3.509,2.585-5.355-.924-5.909-3.693-1.292-9.048-.554-6.831-2.953-11.632-.554-1.846,2.954-9.6,2.4-10.894,0-15.325-3.323-.738-9.418-.922-11.078.184-4.8-2.586-5.171-1.476,2.585-7.016,1.108-4.063-4.247-7.571-4.431-.738,4.247-4.245,2.4-1.662-4.8-4.8-3.509-2.032,7.385-3.324,9.6.184,4.8,3.37,6.323,3.185,3.6,6.508,4.017,5.539,2.493,3.047,4.153-3.323,1.524-5.954,2.078.414,4.293-3.047,5.4-4.293,1.661-4.57,3.6,6.231,6.369,9.832,7.062,4.293,1.938,1.662,5.125-2.492,7.616-.554,9.416,1.524,2.77,2.216,4.155,5.123,2.631,3.877,7.478-.138,3.878.416,8.171,3.739,7.062-.554,8.724-4.155,0-7.478,2.216-3.047-1.524-4.017-2.908-4.017,0-6.509,4.985-1.246,4.864-5.123,5.963-2.354,1.239-7.2,3.039-4.569,4.707-4.431,8.586,1.523,6.093-1.246,8.032-.692,5.677-3.047,7.755-.878,2.354-3.208,4.569-.255,2.354-5.518,2.77-4.845,2.077-7.062,3.323-3.462,2.77-4.293,1.662-1.108-2.908-2.078-3.047-3.047-.416-4.153,2.77.83,2.631-1.524,5.4-6.785,4.155-8.17,7.479-.97,3.461-4.847,8.724-8.31,6.924-10.526,9.14-4.569,2.492-7.062,6.923-3.463,6.647-9.556,8.863-6.508,3.047-9,5.815-.83,3.6-.276,5.263.138,5.4-5.677,6.785-6.093.416-11.078,1.246-5.125,6.231-7.617,9.832-5.263,2.908-7.2,1.386-2.631-1.524-5.261.138a14.085,14.085,0,0,0-5.679,10.8c0,4.569.416,21.326,1.386,25.065s4.293,5.539,2.077,7.2-2.631,4.155-1.524,5.817,4.987,1.938,2.908,5.677-3.323,11.91-6.093,15.649-3.323,3.323-3.6,7.478,1.246,12.74,0,16.479-.83,1.94-1.8,8.586.416,7.063-2.215,7.063-.97-1.246-5.125,2.216-2.354,7.894-5.677,8.862-5.677,8.032-4.709,8.171,3.878,1.246.97,2.353-4.017-1.107-6.647,1.94-3.6.414-6.231,5.954.692,7.34-7.617,11.494-3.739,6.509-8.17,5.125-1.662-.416-5.817-2.354-4.293.414-6.369-4.431-3.463-5.4-7.755-9.418-1.246-3.877-3.047-9.694-3.185-2.492-1.523-7.339,2.215-4.847,1.523-8.724-1.938,1.523-3.463,0,.416-5.539-2.631-11.494-3.185-5.817-3.185-9.14-4.709-5.539-7.063-9.832-1.246-6.371-5.4-11.632-4.569-.832-6.093-10.11-1.8-6.647-2.907-16.755-.554-14.264-4.433-20.358-2.631-12.186-6.508-15.647-11.078-14.541-12.6-19.388-1.938-4.155-2.077-13.433-3.739-19.111-4.155-23.681.138-11.632,0-14.541-3.324-7.478-2.354-15.925.276-11.632,1.384-15.095-.414-13.294-.83-17.31-1.938-3.168,0-6.086-1.108-4.716-1.938-6.655,2.215-4.985,0-6.509-6.785.138-6.233,5.125,3.047,7.478-1.107,10.108-1.662,8.724-8.586,9-11.494,1.246-17.033.554-4.293-5.955-9.556-8.864-10.94-8.448-14.955-10.8-4.155-6.509-5.679-9.833-1.108-5.954,1.662-4.431,1.662,4.293,4.293,4.985,5.261,1.662,8.032-.138a52.952,52.952,0,0,1,8.863-4.431c2.769-1.108,5.4-4.293,3.185-5.539s-2.77-.692-10.11-.832-6.093,2.77-11.354,0-4.155-5.677-6.509-7.616-6.924-4.155-5.539-6.647,4.709-1.662,2.908-2.908-.97.416-3.878-.692-3.323-3.6-1.8-4.155,3.739.278,6.231-.969,1.8-1.246,4.987-4.571,3.461-3.739,6.231-2.215,3.877,3.185,6.647,3.185,2.215,2.769,4.985,2.215,2.493-3.6,7.063-4.015,3.6-2.908,7.062-.138,7.2-.14,7.063-1.94,1.384-9.554-2.493-11.909-4.432-3.463-3.186-6.371,2.216-4.153-1.384-4.293-9.14,1.108-7.755-4.985,7.617-9.97,2.632-11.632-2.908-.416-6.093-2.492-8.309-7.339-5.4-9.694,2.493-.692,6.785-6.093,6.369-9.416,9.694-9,6.647.14,6.647,3.6,4.155-1.108,8.308-1.939,7.893,1.384,10.664-1.246,8.448-4.985,11.494-12.879,7.062-7.478,10.108-8.864,4.155-7.339,6.093-13.017a9.117,9.117,0,0,1,8.171-6.509c1.8-.276,2.354-8.17,7.616-10.662s9.279-5.955,8.725-6.785-1.94-7.617-1.246-10.94,2.215-8.725,5.261-8.864a47.593,47.593,0,0,0,7.755-1.384Z" transform="translate(-207.735 -98.445)" fill="none" stroke="#101920" stroke-miterlimit="10" stroke-width="4"/>
        <g id="Group_189" data-name="Group 189" transform="translate(51.174 77.669)">
          <path id="Path_110" data-name="Path 110" d="M293.865,165.741s3.831-1.708,7.293-2.816,2.631-4.985,3.6-8.448,4.015-1.246,6.785-3.323a10.2,10.2,0,0,1,8.308-1.94c3.047.416,1.246,4.709,5.125,5.539s4.569-.83,6.924.278,2.354,1.246,4.847.554,2.908,0,5.123,3.877a9.1,9.1,0,0,0,5.63,4.526" transform="translate(-212.846 -149.05)" fill="none" stroke="#101920" stroke-linecap="round" stroke-linejoin="round" stroke-width="1" stroke-dasharray="1.117"/>
          <path id="Path_111" data-name="Path 111" d="M354.785,174.525a9.137,9.137,0,0,0-1.053,4.061c0,2.215,2.66,3.323,1.053,4.569s-2.437.692-4.792,0-4.017-1.384-6.785-.83-3.878-1.011-6.371,1.572-5.539,3.136-5.677,7.29,1.8,5.817-1.108,6.093-3.047-3.185-6.369-4.431-2.354-3.185-6.509-4.709-.692-2.215-3.185-5.4-7.2-.554-8.724-4.985,1.107-5.955-2.354-8.862-4.293-10.8-4.293-10.8" transform="translate(-210.304 -144.216)" fill="none" stroke="#101920" stroke-linecap="round" stroke-linejoin="round" stroke-width="1" stroke-dasharray="1.117"/>
          <path id="Path_112" data-name="Path 112" d="M276.421,190.406s1.108,4.293,4.431,4.571,12.048-.692,14.541,0,1.246,4.155,3.323,5.261,3.186.278,5.679,0,3.323,3.337,4.847.56,1.107-2.913,5.123-2.637,2.077-2.631,3.739-4.569,2.216-1.246,4.709-.554,2.769,1.938,4.293-2.632,3.463-2.215,3.6-5.677a27.4,27.4,0,0,0-.694-6.795" transform="translate(-222.175 -133.603)" fill="none" stroke="#101920" stroke-linecap="round" stroke-linejoin="round" stroke-width="1" stroke-dasharray="1.117"/>
          <path id="Path_113" data-name="Path 113" d="M319.468,183.566a59.971,59.971,0,0,1,2.757,6.736c1.384,4.017,2.631,3.463,6.093,5.123a62.339,62.339,0,0,0,9.14,3.415c3.185,1.018,4.707,1.294,12.047,1.294s9.694,1.108,12.464,0a20.167,20.167,0,0,1,5.424-1.294" transform="translate(-199.153 -130.591)" fill="none" stroke="#101920" stroke-linecap="round" stroke-linejoin="round" stroke-width="1" stroke-dasharray="1.117"/>
          <path id="Path_114" data-name="Path 114" d="M284.271,191.026s0,12.608,1.523,12.608,1.8-1.8,4.293-1.108,5.539-.692,6.231,1.938-.953,2.908,3.054,4.709,2.9,1.938,2.071,5.815,2.215,3.739,4.847,5.125.968,6.924,2.354,9.278,3.047-.138,6.646-.97,2.77-3.6,3.6-.83-.414,7.2,2.216,7.2,4.017-.97,3.877,1.8,4.293,4.293,6.371-.554,2.4.968,3.277-5.677.046-7.339-2.169-9.694-6.2,3.323-5.94-2.216.539-9.97,1.785-12.879-4.985-5.08-.416-7.8,3.463-6.322,5.125-8.4,6.646-3.8,6.646-3.8" transform="translate(-217.977 -129.52)" fill="none" stroke="#101920" stroke-linecap="round" stroke-linejoin="round" stroke-width="1" stroke-dasharray="1.117"/>
          <path id="Path_115" data-name="Path 115" d="M241.077,275.059a6.385,6.385,0,0,1,5.869,0c2.955,1.648,2.77,1.648,7.571,1.648s5.631-.554,8.54,2.354,2.493,2.354,5.955,2.354,5.261.83,6.785-1.108,2.908-2.216,2.215,2.077-1.107,5.4,1.524,7.2,2.354,1.108,3.877,5.123,3.739,4.155,6.647,6.093,3.6-.276,5.817,4.571,5.815,5.4,6.508,3.877.14-1.661,2.216-4.847,1.662-4.293,2.77-6.647,2.769-2.215,1.8-7.616-2.216-3.739-1.108-9-1.217-3.185,1.4-5.815,2.893-6.233,4.97-5.539,3.462.692,2.908,3.6-1,4.432.123,4.571,1.124-.83,4.17-1.246,4.431-1.108,4.847,1.246,1.108,3.047,0,4.293-1.384-.416-1.246,3.6-3.185,4.985-3.324,6.093-1.8,1.662.278,2.493,3.69-3.9,4.891-4.583,3-.264,4.525-2.618,2.216-3.415,3.693-2.215.462,2.307,3.232,2.493,1.846,0,4.061,1.292,4.247,1.846,3.693-2.032-1.2-4.985.094-5.261,1.107,1.568,2.307-.092.186-2.4-.554-3.232-4.615-2.861-1.846-5.447,7.2-1.292,7.94-2.4.648-5.539-1.938-5.261-3.139,1.082-5.261-.012-3.693,1.3-5.263-2.758-3.6-5.261.738-8.494,6.831-3.785,10.248-7.016,3.877-3.693,7.848-3.971,9.508-3.369,9.37-5.447-3.739-.968-5.954-1.246-3.74-.414-3.324-3.323,1.384-5.817-1.523-6.785-3.74.276-3.462-2.216a19.806,19.806,0,0,0-.728-6.049" transform="translate(-241.077 -112.304)" fill="none" stroke="#101920" stroke-linecap="round" stroke-linejoin="round" stroke-width="1" stroke-dasharray="1.117"/>
          <path id="Path_116" data-name="Path 116" d="M257.439,332.115a38.672,38.672,0,0,1,5.223-3.14c2.4-1.107,3.047.462,5.815-1.476s1.938-3.139,3.509-5.447,1.662-.924,2.955,0,3.969.184,4.985-1.662,1.108-5.909,0-6.462-1.57-3.971.276-5.171,3.324.554,2.586-2.492-4.063-3.693-3.417-6.185,2.677-2.4,4.523-3.139,3.324-3.139,3.786-6.647,0-2.77,2.215-4.617,1.739-7.869,1.739-7.869" transform="translate(-232.326 -80.19)" fill="none" stroke="#101920" stroke-linecap="round" stroke-linejoin="round" stroke-width="1" stroke-dasharray="1.117"/>
          <path id="Path_117" data-name="Path 117" d="M423.877,223.309s1.635,6.116,3.851,7.408,5.169,1.292,4.431,4.063-3.18-1.478-4.083,3.323-3.16,6.463,0,8.864,7.591,2.216,8.7,4.247-.554,3.139-2.586,3.323-2.215-.738-5.169,1.478-4.617,5.169-6.277,6.462-4.063-.554-5.541,2.586,2.216,7.016,3.324,8.308,0,3.693-2.216,4.247,1.529,8.125-1.452,9.972-.209,3.693-4.455,3.139-8.864,1.477-8.494-1.292,1.476-3.693,2.215-5.541.738-5.723-1.476-6.092-2.216,2.769-6.831-2.77-4.987-7.755-7.2-7.755-2.954.74-7.571,1.292-3.885,2.4-8.589.554-3.228-3.509-7.29-2.769-4.247,1.107-6.093-1.846-2.953,2.585-9.046,2.215-3.509-4.061-9.048-3.323-1.564-2.4-5.306-3.509-6.326,3.509-5.588,7.57a21.42,21.42,0,0,0,3.509,9.233c2.031,3.139,5.453,8.124,2.08,8.678s-3.373-5.725-7.62-5.725-3.779-.922-4.382-5.723-3.644-9.97,0-12,3.275-3.507,7.706-5.723,8.124-7.755,7.755-9.6,1.575-5.169-3.459-7.754-4.345-5.834-8.359-5.541l-4.012.295" transform="translate(-196.779 -109.336)" fill="none" stroke="#101920" stroke-linecap="round" stroke-linejoin="round" stroke-width="1" stroke-dasharray="1.117"/>
          <path id="Path_118" data-name="Path 118" d="M437.677,225.347a43.334,43.334,0,0,0,6.2-1.6c3.139-1.085,3.509-1.269,4.8-1.269h2.443" transform="translate(-135.934 -109.778)" fill="none" stroke="#101920" stroke-linecap="round" stroke-linejoin="round" stroke-width="1" stroke-dasharray="1.117"/>
          <path id="Path_119" data-name="Path 119" d="M464.606,233.143s4.773-1.786,4.4,0a12.572,12.572,0,0,1-4.4,6.773c-2.612,2.032-1.819,7.94,0,10.156s-2.058,4.431-3.166,5.169,5.375,7.385,3.8,10.156-.287,2.4-2.133,7.017-5.909.184-6.831,5.907.368,5.395-6.279,7.775-6.647-.2-10.34,2.381-4.431-.554-7.386,1.292-2.954,3.693,0,6.831,5.725,6.027,9.232,5.6,1.846,7.326,4.063,9.912a2.861,2.861,0,0,1-3.139,4.615c-2.585-.922-3.693-6.647-5.723-6.647s-2.77,1.453-3.509,6.821-2.955,6.844-5.355,4.073-4.985-2.031-9.048-2.4.554-4.431-2.4-6.093-3.877.53-8.862,1-8.309,1.926-8.864,0-.738-2.664,1.478-5.619,3.507-.8,1.107-5.665-4.8-5.045-4.985-9.107-.764-1.476-6.277-5.908l-5.515-4.431" transform="translate(-164.39 -104.502)" fill="none" stroke="#101920" stroke-linecap="round" stroke-linejoin="round" stroke-width="1" stroke-dasharray="1.117"/>
          <path id="Path_120" data-name="Path 120" d="M439.265,298.172s1.846-3.09-3.139-5.011-9.418-2.844-9.972-3.952a9.432,9.432,0,0,0-1.948-2.3" transform="translate(-143.138 -75.321)" fill="none" stroke="#101920" stroke-linecap="round" stroke-linejoin="round" stroke-width="1" stroke-dasharray="1.117"/>
          <path id="Path_121" data-name="Path 121" d="M274.676,292.98a8.514,8.514,0,0,0,6.555,1.09c3.509-1,1.662,1.587,4.8,3.987a17.548,17.548,0,0,0,9.048,3.693c3.509.554,4.431.184,7.2,2.4s6.277-1.108,8.494,2.216,3.693,4.8,7.385,4.061,2.954-1.661,7.2-4.985,7.754-5.005,10.34-4.442-2.216,7.026,4.8,6.842,7.387-7.66,12.556-6.046,5.355,5.677,9.97,3.645,6.279-4.522,10.156-3.645,7.386,4.383,12.371,3.831,9.048,0,9.418,1.661-2.77,1.292-1.662,5.355,3.938,6.463,1.693,11.632-2.431,7.94-.769,10.71,5.723,6.277,2.769,7.754-5.169,2.954-7.016,7.94,4.247,7.755.368,9.6,3.878,2.216,4.617,4.247,4.423,2.955,5.812,7.94,5.45,4.617,7.666,4.431.738.37,3.877-5.353,5.909-9.232,7.386-11.634,6.833.556,6.093-7.016-2.4-.554-2.031-9.786-4.431-11.448-.922-11.816,6.831,6.093,9.6,6.093,1.846-3.878,0-5.171-3.166-6.831-3.8-9.97-1.186-3.324,1.584-6.093-.554-4.985,4.8-6.279,7.57,4.063,9.416-3.693-.184-7.973,5.169-12.111a29.439,29.439,0,0,0,7.755-8.857" transform="translate(-223.108 -76.23)" fill="none" stroke="#101920" stroke-linecap="round" stroke-linejoin="round" stroke-width="1" stroke-dasharray="1.117"/>
          <path id="Path_122" data-name="Path 122" d="M266.4,397.9s4.486-2.866,6.517-1.389,5.171,1.846,7.385-1.662,4.617-5.146,2.4-8.308-3.039-2.954.881-7.755,1.889-6.461,6.874-5.909,5.355,1.108,9.97-3.877,1.478-6.647,7.571-5.355,10.34,1.108,13.295-3.509,1.846-6.646,6.831-7.754,5.355-.184,10.524-5.171,5.171-.554,6.647-9.416,2.031-9.232,5.539-10.156,2.585,1.108,5.723-3.323,4.247-5.909,7.571-5.171,3.693,6.093,9.048,6.279,7.94-6.463,11.262-1.108-.184,12,2.032,15.695,7.238,3.248,7.238,3.248" transform="translate(-227.534 -58.178)" fill="none" stroke="#101920" stroke-linecap="round" stroke-linejoin="round" stroke-width="1" stroke-dasharray="1.117"/>
          <path id="Path_123" data-name="Path 123" d="M272.917,385.866s1.685,1.84,2.608-1.853-1.3-14.056-1.3-14.056" transform="translate(-224.049 -30.907)" fill="none" stroke="#101920" stroke-linecap="round" stroke-linejoin="round" stroke-width="1" stroke-dasharray="1.117"/>
          <path id="Path_124" data-name="Path 124" d="M279.533,408.539s10.549,3.033,11.657,6.911,2.585,4.063,8.308,6.277,6.463-2.4,6.833,3.877,4.985,9.418,6.277,11.08,2.216,9.416,5.539,10.894-.554,11.447,3.323,13.847,6.093-1.108,4.987,7.571,2.769,7.94-.74,13.295-1.477,2.953-2.215,7.57,1.477,6.093,0,7.57-4.847,1.294-4.847,1.294" transform="translate(-220.511 -10.274)" fill="none" stroke="#101920" stroke-linecap="round" stroke-linejoin="round" stroke-width="1" stroke-dasharray="1.117"/>
          <path id="Path_125" data-name="Path 125" d="M361.836,354.171a18.612,18.612,0,0,0,7.2-2.031c3.323-1.846,4.615-1.108,10.154-6.463s3.509-8.494,7.755-7.385,6.093,2.216,7.571-1.661-1.294-4.987,3.693-6.279,6.277-4.431,8.308-1.292,7.94,5.539,10.156,4.063,6-4.431,6-4.431" transform="translate(-176.494 -53.503)" fill="none" stroke="#101920" stroke-linecap="round" stroke-linejoin="round" stroke-width="1" stroke-dasharray="1.117"/>
          <path id="Path_126" data-name="Path 126" d="M297.318,432.6s6.517-.252,7.441,1.779,5.169,4.8,6.647,3.509,1.716-4.063,6.3-4.247,6.8-.738,8.65-5.355-3.693-4.431-1.292-8.678-.924-5.909,3.877-5.909,6.093-4.035,7.571-1,4.8,5.619,5.907,3.218,2.216-4.985,5.909-5.539,5.539,2.4,7.94,1.476,6.831-4.247,7.017-5.723,1.984-.924,7.016-2.216,4.446-3.142,4.446-3.142" transform="translate(-210.999 -14.43)" fill="none" stroke="#101920" stroke-linecap="round" stroke-linejoin="round" stroke-width="1" stroke-dasharray="1.117"/>
          <path id="Path_127" data-name="Path 127" d="M317.686,337.371s4.247,6.647,2.955,9.233-4.371,4.431-1.355,7.2-1.229,6.463-1.6,11.08,4.307,6.6,1.6,8.655-1.415,5.378.8,7.039,2.173,4.8-2.422,5.909-5.7.554-6.994,3.323,2.4,7.017,1.476,9.786-4.617,1.483-4.985,4.158-3.324,12.091,0,12.275,10.34-3.139,10.156,1.662-4.433,2.216-4.8,5.725,3.877,4.061,7.754,3.877,6.279-1.662,8.31,1.477-1.311,2.4,3.037,5.906,5.086,2.958,3.794,6.466a15.614,15.614,0,0,1-3.323,5.459" transform="translate(-206.571 -48.335)" fill="none" stroke="#101920" stroke-linecap="round" stroke-linejoin="round" stroke-width="1" stroke-dasharray="1.117"/>
          <path id="Path_128" data-name="Path 128" d="M457.356,238.769s.786-3.739,1.754-4.431,1.5-6.749,1.5-6.749" transform="translate(-125.41 -107.047)" fill="none" stroke="#101920" stroke-linecap="round" stroke-linejoin="round" stroke-width="1" stroke-dasharray="1.117"/>
          <path id="Path_129" data-name="Path 129" d="M458.916,241.276a21.727,21.727,0,0,1,9.054-1.823c4.985.138,8.725.985,11.078.907s2.77,2.74,6.233.916,5.539-6.81,9.832-6.394,6.924-1.108,6.37,2.77.278,4.847,3.185,5.123,5.4,3.6,5.125,5.539-2.922,5.263-2.922,5.263" transform="translate(-124.575 -103.16)" fill="none" stroke="#101920" stroke-linecap="round" stroke-linejoin="round" stroke-width="1" stroke-dasharray="1.117"/>
          <path id="Path_130" data-name="Path 130" d="M483.819,234.794s-1.888.625,4.62-2.146,13.433-1.526,18.557-2.772,6.509,1.662,6.785-4.431,1.662-5.539,4.847-7.063,1.8-3.047,4.847-3.463,4.569,3.185,8.724-1.246a19.624,19.624,0,0,1,11.356-6.093c3.185-.692,4.709-3.185,4.015.692s-4.153,3.324-1.523,6.233,3.877,4.015,1.108,6.785-3.834,1.742-3.372,4.956" transform="translate(-111.393 -118.511)" fill="none" stroke="#101920" stroke-linecap="round" stroke-linejoin="round" stroke-width="1" stroke-dasharray="1.117"/>
          <path id="Path_131" data-name="Path 131" d="M523.347,240.063s.5-3.335-1.3-3.475-1.661,4.017-4.431,4.709-3.185-.993-7.2,2-.831,2.988-6.508,4.512-3.878,5.815-4.987,9.14-2.215,5.677-1.661,8.586,5.307,7.016,5.307,7.016" transform="translate(-104.149 -102.236)" fill="none" stroke="#101920" stroke-linecap="round" stroke-linejoin="round" stroke-width="1" stroke-dasharray="1.117"/>
          <path id="Path_132" data-name="Path 132" d="M486.951,258.212s3.555,2.8,3.139,5.3-.531,11.993-.531,11.993" transform="translate(-109.582 -90.67)" fill="none" stroke="#101920" stroke-linecap="round" stroke-linejoin="round" stroke-width="1" stroke-dasharray="1.117"/>
          <path id="Path_133" data-name="Path 133" d="M501,255.794s0-.968-3.6-.692-.233,4.985-3.44,5.955-5.389,1.615-5.389,1.615" transform="translate(-108.718 -92.36)" fill="none" stroke="#101920" stroke-linecap="round" stroke-linejoin="round" stroke-width="1" stroke-dasharray="1.117"/>
          <path id="Path_134" data-name="Path 134" d="M501.959,257.424a7.686,7.686,0,0,0-.554-7.063,3.964,3.964,0,0,1,3.185-6.093,5.851,5.851,0,0,0,3.725-.02c1.676-.534,2.368-6.9,4.861-9.534s2.216-1.246,5.263-5.955,4.155-5.539,8.586-6.647a33.458,33.458,0,0,0,8.32-3.512" transform="translate(-102.202 -111.855)" fill="none" stroke="#101920" stroke-linecap="round" stroke-linejoin="round" stroke-width="1" stroke-dasharray="1.117"/>
        </g>
      </g>
      <g id="Group_192" data-name="Group 192" transform="translate(810.659 459.517)">
        <g id="Group_191" data-name="Group 191">
          <circle id="Ellipse_150-2" data-name="Ellipse 150" cx="11.656" cy="11.656" r="11.656" fill="#fe186e"/>
          <path id="Path_135-2" data-name="Path 135" d="M316.915,183.549a6.7,6.7,0,1,1-6.7-6.7A6.705,6.705,0,0,1,316.915,183.549Z" transform="translate(-298.555 -171.894)" fill="none" stroke="#fff" stroke-miterlimit="10" stroke-width="0.713"/>
        </g>
        <line id="Line_4" data-name="Line 4" y2="8.057" transform="translate(11.656 23.312)" fill="none" stroke="#fe186e" stroke-linecap="round" stroke-linejoin="round" stroke-width="3"/>
        <path id="Path_136" data-name="Path 136" d="M310.715,196.363a2.106,2.106,0,1,1-2.106-2.106A2.106,2.106,0,0,1,310.715,196.363Z" transform="translate(-296.952 -162.582)" fill="none" stroke="#fe186e" stroke-linecap="round" stroke-linejoin="round" stroke-width="3"/>
      </g>
      <g id="Group_194" data-name="Group 194" transform="translate(729.482 673.635)">
        <g id="Group_193" data-name="Group 193" transform="translate(0 0)">
          <circle id="Ellipse_151-2" data-name="Ellipse 151" cx="11.656" cy="11.656" r="11.656" transform="translate(0 22.684) rotate(-76.673)" fill="#ff6d00"/>
          <path id="Path_137-2" data-name="Path 137" d="M267.846,317.207a6.7,6.7,0,1,1-6.7-6.7A6.7,6.7,0,0,1,267.846,317.207Z" transform="translate(-247.113 -303.178)" fill="none" stroke="#fff" stroke-miterlimit="10" stroke-width="0.713"/>
        </g>
        <line id="Line_5" data-name="Line 5" y2="8.057" transform="translate(14.029 25.685)" fill="none" stroke="#ff6d00" stroke-linecap="round" stroke-linejoin="round" stroke-width="3"/>
        <path id="Path_138" data-name="Path 138" d="M261.646,330.02a2.106,2.106,0,1,1-2.106-2.106A2.105,2.105,0,0,1,261.646,330.02Z" transform="translate(-245.511 -293.866)" fill="none" stroke="#ff6d00" stroke-linecap="round" stroke-linejoin="round" stroke-width="3"/>
      </g>
      <g id="Group_196" data-name="Group 196" transform="translate(770.938 670.357)">
        <g id="Group_195" data-name="Group 195">
          <circle id="Ellipse_152-2" data-name="Ellipse 152" cx="11.656" cy="11.656" r="11.656" fill="#c6f"/>
          <path id="Path_139-2" data-name="Path 139" d="M293.311,319.214a6.7,6.7,0,1,1-6.7-6.7A6.7,6.7,0,0,1,293.311,319.214Z" transform="translate(-274.951 -307.559)" fill="none" stroke="#fff" stroke-miterlimit="10" stroke-width="0.713"/>
        </g>
        <line id="Line_6" data-name="Line 6" y2="8.057" transform="translate(11.656 23.312)" fill="none" stroke="#c6f" stroke-linecap="round" stroke-linejoin="round" stroke-width="3"/>
        <path id="Path_140" data-name="Path 140" d="M287.111,332.028A2.106,2.106,0,1,1,285,329.922,2.107,2.107,0,0,1,287.111,332.028Z" transform="translate(-273.348 -298.247)" fill="none" stroke="#c6f" stroke-linecap="round" stroke-linejoin="round" stroke-width="3"/>
      </g>
    </g>
  </g>
</svg>
